<svg width="48" height="48" viewBox="0 0 48 48" fill="none" xmlns="http://www.w3.org/2000/svg">
<circle cx="24.0781" cy="24.3095" r="22.9525" stroke="black" stroke-width="1.32344"/>
<mask id="path-2-inside-1" fill="white">
<path d="M47.6923 24.3095C47.6923 21.2085 47.0815 18.1378 45.8948 15.2728C44.7081 12.4078 42.9686 9.80454 40.7759 7.61176C38.5831 5.41897 35.9799 3.67956 33.1149 2.49284C30.2498 1.30611 27.1792 0.695312 24.0781 0.695313L24.0781 2.57782C26.9319 2.57782 29.7578 3.13993 32.3945 4.23205C35.0311 5.32417 37.4268 6.92491 39.4447 8.94289C41.4627 10.9609 43.0635 13.3566 44.1556 15.9932C45.2477 18.6298 45.8098 21.4557 45.8098 24.3095H47.6923Z"/>
</mask>
<path d="M47.6923 24.3095C47.6923 21.2085 47.0815 18.1378 45.8948 15.2728C44.7081 12.4078 42.9686 9.80454 40.7759 7.61176C38.5831 5.41897 35.9799 3.67956 33.1149 2.49284C30.2498 1.30611 27.1792 0.695312 24.0781 0.695313L24.0781 2.57782C26.9319 2.57782 29.7578 3.13993 32.3945 4.23205C35.0311 5.32417 37.4268 6.92491 39.4447 8.94289C41.4627 10.9609 43.0635 13.3566 44.1556 15.9932C45.2477 18.6298 45.8098 21.4557 45.8098 24.3095H47.6923Z" stroke="#31BDFA" stroke-width="2.64688" mask="url(#path-2-inside-1)"/>
<path d="M34.0093 22.3096C34.0093 29.3096 25.0093 35.3096 25.0093 35.3096C25.0093 35.3096 16.0093 29.3096 16.0093 22.3096C16.0093 19.9226 16.9575 17.6334 18.6453 15.9456C20.3331 14.2578 22.6223 13.3096 25.0093 13.3096C27.3962 13.3096 29.6854 14.2578 31.3732 15.9456C33.0611 17.6334 34.0093 19.9226 34.0093 22.3096Z" stroke="black" stroke-width="2" stroke-linecap="round" stroke-linejoin="round"/>
<path d="M25.0093 25.3096C26.6661 25.3096 28.0093 23.9664 28.0093 22.3096C28.0093 20.6527 26.6661 19.3096 25.0093 19.3096C23.3524 19.3096 22.0093 20.6527 22.0093 22.3096C22.0093 23.9664 23.3524 25.3096 25.0093 25.3096Z" stroke="black" stroke-width="2" stroke-linecap="round" stroke-linejoin="round"/>
</svg>
