<svg width="23" height="23" viewBox="0 0 23 23" fill="none" xmlns="http://www.w3.org/2000/svg">
<path d="M16.0181 1.58691H6.01807C3.25664 1.58691 1.01807 3.82549 1.01807 6.58691V16.5869C1.01807 19.3483 3.25664 21.5869 6.01807 21.5869H16.0181C18.7795 21.5869 21.0181 19.3483 21.0181 16.5869V6.58691C21.0181 3.82549 18.7795 1.58691 16.0181 1.58691Z" stroke="white" stroke-width="2" stroke-linecap="round" stroke-linejoin="round"/>
<path d="M15.0183 10.957C15.1417 11.7892 14.9995 12.6392 14.612 13.386C14.2245 14.1328 13.6114 14.7384 12.8599 15.1166C12.1084 15.4949 11.2567 15.6266 10.426 15.4929C9.59539 15.3592 8.82802 14.9671 8.2331 14.3721C7.63818 13.7772 7.24599 13.0098 7.11233 12.1792C6.97866 11.3485 7.11033 10.4969 7.48859 9.74535C7.86685 8.99383 8.47245 8.38071 9.21925 7.99321C9.96605 7.60571 10.816 7.46356 11.6483 7.58697C12.4972 7.71286 13.2831 8.10843 13.89 8.71528C14.4968 9.32212 14.8924 10.108 15.0183 10.957Z" stroke="white" stroke-width="2" stroke-linecap="round" stroke-linejoin="round"/>
<path d="M16.5181 6.08691H16.5281" stroke="white" stroke-width="2" stroke-linecap="round" stroke-linejoin="round"/>
</svg>
