<svg width="48" height="49" viewBox="0 0 48 49" fill="none" xmlns="http://www.w3.org/2000/svg">
<circle cx="24.0781" cy="24.4297" r="22.9525" stroke="black" stroke-width="1.32344"/>
<mask id="path-2-inside-1" fill="white">
<path d="M47.6923 24.4297C47.6923 21.3286 47.0815 18.2579 45.8948 15.3929C44.7081 12.5279 42.9686 9.92466 40.7759 7.73187C38.5831 5.53909 35.9799 3.79968 33.1149 2.61295C30.2498 1.42623 27.1792 0.81543 24.0781 0.81543L24.0781 2.69794C26.9319 2.69794 29.7578 3.26004 32.3945 4.35216C35.0311 5.44429 37.4268 7.04503 39.4447 9.06301C41.4627 11.081 43.0635 13.4767 44.1556 16.1133C45.2477 18.7499 45.8098 21.5758 45.8098 24.4297H47.6923Z"/>
</mask>
<path d="M47.6923 24.4297C47.6923 21.3286 47.0815 18.2579 45.8948 15.3929C44.7081 12.5279 42.9686 9.92466 40.7759 7.73187C38.5831 5.53909 35.9799 3.79968 33.1149 2.61295C30.2498 1.42623 27.1792 0.81543 24.0781 0.81543L24.0781 2.69794C26.9319 2.69794 29.7578 3.26004 32.3945 4.35216C35.0311 5.44429 37.4268 7.04503 39.4447 9.06301C41.4627 11.081 43.0635 13.4767 44.1556 16.1133C45.2477 18.7499 45.8098 21.5758 45.8098 24.4297H47.6923Z" stroke="#31BDFA" stroke-width="2.64688" mask="url(#path-2-inside-1)"/>
<path d="M16.6947 17.1143H31.3247C32.3305 17.1143 33.1535 17.9372 33.1535 18.943V29.9155C33.1535 30.9213 32.3305 31.7443 31.3247 31.7443H16.6947C15.6889 31.7443 14.866 30.9213 14.866 29.9155V18.943C14.866 17.9372 15.6889 17.1143 16.6947 17.1143Z" stroke="black" stroke-width="1.82875" stroke-linecap="round" stroke-linejoin="round"/>
<path d="M33.1527 18.9429L24.009 25.3435L14.8652 18.9429" stroke="black" stroke-width="1.82875" stroke-linecap="round" stroke-linejoin="round"/>
</svg>
