<svg width="48" height="48" viewBox="0 0 48 48" fill="none" xmlns="http://www.w3.org/2000/svg">
<path d="M32.4134 28.0361V30.2699C32.4142 30.4773 32.3718 30.6825 32.2887 30.8726C32.2056 31.0626 32.0838 31.2331 31.931 31.3733C31.7782 31.5135 31.5977 31.6202 31.4013 31.6867C31.2049 31.7531 30.9967 31.7778 30.7902 31.7591C28.4989 31.5102 26.298 30.7272 24.3642 29.4732C22.5651 28.33 21.0398 26.8046 19.8966 25.0056C18.6382 23.063 17.8551 20.8514 17.6107 18.5498C17.5921 18.3439 17.6165 18.1364 17.6825 17.9405C17.7485 17.7445 17.8546 17.5645 17.994 17.4118C18.1333 17.2591 18.303 17.1371 18.4921 17.0536C18.6812 16.97 18.8857 16.9268 19.0924 16.9266H21.3262C21.6876 16.923 22.0379 17.051 22.3119 17.2866C22.5859 17.5223 22.7649 17.8495 22.8154 18.2073C22.9097 18.9222 23.0846 19.6241 23.3367 20.2996C23.4369 20.5662 23.4585 20.8558 23.3991 21.1343C23.3398 21.4127 23.2018 21.6683 23.0016 21.8708L22.056 22.8164C23.1159 24.6806 24.6594 26.2241 26.5236 27.284L27.4692 26.3384C27.6717 26.1382 27.9273 26.0002 28.2057 25.9408C28.4842 25.8815 28.7738 25.9031 29.0403 26.0033C29.7159 26.2554 30.4178 26.4303 31.1327 26.5245C31.4944 26.5756 31.8247 26.7578 32.0609 27.0365C32.297 27.3152 32.4225 27.6709 32.4134 28.0361Z" fill="black"/>
<circle cx="24.0781" cy="24.3447" r="22.9525" stroke="black" stroke-width="1.32344"/>
<mask id="path-3-inside-1" fill="white">
<path d="M47.6923 24.3447C47.6923 21.2436 47.0815 18.1729 45.8948 15.3079C44.7081 12.4429 42.9686 9.8397 40.7759 7.64691C38.5831 5.45413 35.9799 3.71472 33.1149 2.52799C30.2498 1.34127 27.1792 0.730469 24.0781 0.730469L24.0781 2.61298C26.9319 2.61298 29.7578 3.17508 32.3945 4.2672C35.0311 5.35932 37.4268 6.96007 39.4447 8.97805C41.4627 10.996 43.0635 13.3917 44.1556 16.0283C45.2477 18.6649 45.8098 21.4908 45.8098 24.3447H47.6923Z"/>
</mask>
<path d="M47.6923 24.3447C47.6923 21.2436 47.0815 18.1729 45.8948 15.3079C44.7081 12.4429 42.9686 9.8397 40.7759 7.64691C38.5831 5.45413 35.9799 3.71472 33.1149 2.52799C30.2498 1.34127 27.1792 0.730469 24.0781 0.730469L24.0781 2.61298C26.9319 2.61298 29.7578 3.17508 32.3945 4.2672C35.0311 5.35932 37.4268 6.96007 39.4447 8.97805C41.4627 10.996 43.0635 13.3917 44.1556 16.0283C45.2477 18.6649 45.8098 21.4908 45.8098 24.3447H47.6923Z" stroke="#31BDFA" stroke-width="2.64688" mask="url(#path-3-inside-1)"/>
</svg>
