<svg width="24" height="21" viewBox="0 0 24 21" fill="none" xmlns="http://www.w3.org/2000/svg">
<path d="M23.0181 1.30888C22.0605 1.98436 21.0002 2.50099 19.8781 2.83888C19.2758 2.14639 18.4754 1.65558 17.5851 1.43281C16.6948 1.21004 15.7576 1.26608 14.9001 1.59334C14.0427 1.92059 13.3065 2.50329 12.791 3.2626C12.2756 4.02192 12.0058 4.92122 12.0181 5.83888V6.83888C10.2607 6.88445 8.51934 6.4947 6.94908 5.70433C5.37881 4.91396 4.02838 3.74752 3.01807 2.30888C3.01807 2.30888 -0.981934 11.3089 8.01807 15.3089C5.95859 16.7068 3.50522 17.4078 1.01807 17.3089C10.0181 22.3089 21.0181 17.3089 21.0181 5.80888C21.0171 5.53034 20.9904 5.25248 20.9381 4.97888C21.9587 3.97238 22.6789 2.7016 23.0181 1.30888V1.30888Z" stroke="white" stroke-width="2" stroke-linecap="round" stroke-linejoin="round"/>
</svg>
