<svg width="37" height="37" viewBox="0 0 37 37" fill="none" xmlns="http://www.w3.org/2000/svg">
<path d="M24.6345 21.1874V22.8753C24.6351 23.032 24.603 23.1871 24.5402 23.3307C24.4774 23.4743 24.3854 23.6031 24.2699 23.7091C24.1544 23.815 24.0181 23.8957 23.8697 23.9459C23.7213 23.9961 23.564 24.0147 23.4079 24.0006C21.6766 23.8125 20.0136 23.2209 18.5524 22.2733C17.193 21.4095 16.0405 20.257 15.1767 18.8975C14.2258 17.4298 13.6341 15.7586 13.4494 14.0196C13.4353 13.864 13.4538 13.7072 13.5037 13.5591C13.5535 13.4111 13.6337 13.275 13.739 13.1596C13.8443 13.0443 13.9725 12.9521 14.1154 12.889C14.2583 12.8258 14.4128 12.7932 14.569 12.793H16.2569C16.53 12.7903 16.7947 12.887 17.0017 13.0651C17.2087 13.2431 17.344 13.4904 17.3822 13.7607C17.4534 14.3009 17.5855 14.8313 17.776 15.3417C17.8517 15.5431 17.8681 15.762 17.8232 15.9724C17.7783 16.1828 17.6741 16.3759 17.5228 16.5289L16.8083 17.2434C17.6092 18.652 18.7755 19.8183 20.1841 20.6192L20.8986 19.9047C21.0516 19.7534 21.2447 19.6491 21.4551 19.6043C21.6655 19.5594 21.8844 19.5758 22.0857 19.6515C22.5962 19.8419 23.1266 19.9741 23.6667 20.0453C23.94 20.0839 24.1896 20.2215 24.3681 20.4321C24.5465 20.6427 24.6413 20.9115 24.6345 21.1874Z" fill="black"/>
<circle cx="18.3362" cy="18.399" r="17.3431" stroke="black"/>
<mask id="path-3-inside-1" fill="white">
<path d="M36.1793 18.399C36.1793 16.0558 35.7178 13.7356 34.8211 11.5707C33.9244 9.40591 32.6101 7.43891 30.9532 5.78202C29.2963 4.12514 27.3293 2.81083 25.1645 1.91413C22.9997 1.01743 20.6794 0.555908 18.3362 0.555908V1.97834C20.4926 1.97834 22.6279 2.40308 24.6201 3.22829C26.6124 4.0535 28.4226 5.26304 29.9474 6.78784C31.4722 8.31263 32.6817 10.1228 33.5069 12.1151C34.3321 14.1073 34.7569 16.2426 34.7569 18.399H36.1793Z"/>
</mask>
<path d="M36.1793 18.399C36.1793 16.0558 35.7178 13.7356 34.8211 11.5707C33.9244 9.40591 32.6101 7.43891 30.9532 5.78202C29.2963 4.12514 27.3293 2.81083 25.1645 1.91413C22.9997 1.01743 20.6794 0.555908 18.3362 0.555908V1.97834C20.4926 1.97834 22.6279 2.40308 24.6201 3.22829C26.6124 4.0535 28.4226 5.26304 29.9474 6.78784C31.4722 8.31263 32.6817 10.1228 33.5069 12.1151C34.3321 14.1073 34.7569 16.2426 34.7569 18.399H36.1793Z" stroke="#31BDFA" stroke-width="2" mask="url(#path-3-inside-1)"/>
</svg>
